<?xml version="1.0" encoding="UTF-8"?>
<svg version="1.1" xmlns="http://www.w3.org/2000/svg" width="2000" height="1500">
<path d="M0 0 C660 0 1320 0 2000 0 C2000 495 2000 990 2000 1500 C1340 1500 680 1500 0 1500 C0 1005 0 510 0 0 Z " fill="#000000" transform="translate(0,0)"/>
<path d="M0 0 C1.07742887 -0.00551417 2.15485774 -0.01102833 3.26493597 -0.0167096 C6.86425054 -0.03027174 10.46287061 -0.01542435 14.06217194 -0.00063419 C16.67325089 -0.00452824 19.28432773 -0.01016951 21.89539957 -0.01740509 C27.56688459 -0.03028408 33.23821319 -0.02836657 38.90969849 -0.0166254 C47.34390015 0.00078705 55.77797926 -0.0047534 64.21218734 -0.01479231 C79.27933541 -0.03197466 94.34641066 -0.02644886 109.41355722 -0.01143513 C122.60415911 0.00162363 135.79473576 0.00681129 148.98534393 0.00424671 C149.86077429 0.0040863 150.73620464 0.00392588 151.63816318 0.0037606 C155.19202977 0.00309699 158.74589635 0.00239458 162.29976292 0.00163526 C195.63760782 -0.00538841 228.97540831 0.0100994 262.31324191 0.03625872 C291.90717818 0.05935744 321.5010656 0.06476789 351.09500885 0.05452633 C358.66919452 0.05192415 366.24338019 0.04933907 373.81756592 0.04692841 C375.21643346 0.04648223 375.21643346 0.04648223 376.64356096 0.04602705 C401.39268674 0.03840311 426.14180856 0.04483283 450.89093256 0.05562443 C453.55586392 0.05677219 456.22079527 0.05791537 458.88572663 0.05905125 C460.65347037 0.0598065 462.42121411 0.06057215 464.18895784 0.06134826 C477.36306462 0.0669966 490.53715874 0.06568326 503.71126556 0.06112003 C518.70349687 0.05600078 533.69568093 0.06191513 548.68790048 0.08201433 C557.06900821 0.09296271 565.45002302 0.09582936 573.83113349 0.0867258 C579.44161755 0.08147646 585.05202265 0.08728114 590.66249018 0.10177914 C593.85121941 0.10972399 597.03972732 0.11152995 600.22846097 0.10320658 C629.74207286 0.03279937 656.86988539 2.87635396 678.79813385 24.50057125 C692.44525687 38.38659358 696.20126031 57.43253548 696.16873932 76.3001318 C695.80915088 92.60097088 693.04485574 108.82568725 685.79813385 123.50057125 C685.43896881 124.25273922 685.07980377 125.00490719 684.70975494 125.77986813 C674.43954677 147.12695646 660.70063428 166.31609478 646.51590729 185.20613766 C643.58585231 189.11981826 640.69434516 193.06182062 637.79813385 197.00057125 C636.6342268 198.58011289 635.47016433 200.15954002 634.30594635 201.7388525 C631.94470188 204.94321023 629.58554839 208.14909342 627.22782135 211.35604 C621.3000366 219.41574733 615.34645418 227.45382028 609.33231354 235.44930172 C603.09278638 243.75425652 596.95041742 252.13091612 590.79813385 260.50057125 C583.68268398 270.18053168 576.5540919 279.84832989 569.33231354 289.44930172 C563.69504299 296.95263905 558.13942106 304.51587666 552.58036041 312.07723141 C549.07277947 316.84658051 545.55915215 321.61147687 542.04642487 326.37703609 C539.13947812 330.32128125 536.23436256 334.2668467 533.3332901 338.215415 C526.73889783 347.18616484 520.09595662 356.11791928 513.40604401 365.01766109 C506.80962305 373.80092971 500.30154862 382.64834683 493.79813385 391.50057125 C486.68336928 401.18102818 479.5540855 410.8483384 472.33231354 420.44930172 C466.69504299 427.95263905 461.13942106 435.51587666 455.58036041 443.07723141 C452.07277947 447.84658051 448.55915215 452.61147687 445.04642487 457.37703609 C442.13947812 461.32128125 439.23436256 465.2668467 436.3332901 469.215415 C429.73889783 478.18616484 423.09595662 487.11791928 416.40604401 496.01766109 C409.80962305 504.80092971 403.30154862 513.64834683 396.79813385 522.50057125 C389.68336928 532.18102818 382.5540855 541.8483384 375.33231354 551.44930172 C369.69504299 558.95263905 364.13942106 566.51587666 358.58036041 574.07723141 C355.07277947 578.84658051 351.55915215 583.61147687 348.04642487 588.37703609 C345.13947812 592.32128125 342.23436256 596.2668467 339.3332901 600.215415 C332.73889783 609.18616484 326.09595662 618.11791928 319.40604401 627.01766109 C312.80962305 635.80092971 306.30154862 644.64834683 299.79813385 653.50057125 C292.68336928 663.18102818 285.5540855 672.8483384 278.33231354 682.44930172 C272.69504299 689.95263905 267.13942106 697.51587666 261.58036041 705.07723141 C258.07277947 709.84658051 254.55915215 714.61147687 251.04642487 719.37703609 C248.13947812 723.32128125 245.23436256 727.2668467 242.3332901 731.215415 C235.73889783 740.18616484 229.09595662 749.11791928 222.40604401 758.01766109 C216.40443266 766.00892863 210.47551963 774.0526079 204.55838776 782.10652828 C202.73824856 784.58201856 200.91512635 787.0552858 199.0911026 789.527915 C198.47694489 790.36056881 197.86278717 791.19322262 197.23001862 792.05110836 C196.07575077 793.61586574 194.92130859 795.18049455 193.76663971 796.74495602 C190.69249039 800.91452922 187.63448848 805.09540992 184.58866119 809.2857275 C183.52027512 810.7553796 183.52027512 810.7553796 182.43030548 812.25472164 C181.89168884 812.99585201 181.3530722 813.73698238 180.79813385 814.50057125 C181.73979536 814.49905237 182.68145688 814.49753349 183.65165359 814.49596858 C239.4583821 814.40630774 295.26510395 814.337828 351.07189004 814.29630993 C357.7722234 814.29132068 364.47255659 814.28613445 371.17288971 814.28084469 C371.83964604 814.28032165 372.50640238 814.27979862 373.19336345 814.27925973 C394.79680711 814.26222064 416.40020887 814.23218012 438.00362716 814.19538237 C460.83755638 814.15655938 483.67146722 814.13258275 506.50542945 814.12421727 C520.18191034 814.118728 533.85827092 814.10138858 547.53471478 814.06890538 C556.91232836 814.04776659 566.2898797 814.0413698 575.66751537 814.04656574 C581.07844763 814.04912847 586.48916958 814.04519137 591.90006447 814.02374935 C596.85680109 814.00425065 601.81318642 814.00332293 606.76993939 814.01697567 C608.56017071 814.01866248 610.35042417 814.01361656 612.1406121 814.00103852 C625.62896033 813.91180239 636.03675532 815.55468012 646.79813385 824.18807125 C647.48182037 824.719165 648.1655069 825.25025875 648.86991119 825.79744625 C650.85866285 827.34991639 652.83054147 828.921415 654.79813385 830.50057125 C655.78039948 831.28045406 656.7626651 832.06033688 657.77469635 832.8638525 C660.47739934 835.04435181 663.14208483 837.26350461 665.79813385 839.50057125 C666.34179596 839.95399899 666.88545807 840.40742672 667.44559479 840.87459469 C674.87768104 847.07974423 681.95618981 853.45690426 688.68875885 860.41854 C690.62154809 862.54145845 690.62154809 862.54145845 692.79813385 863.50057125 C692.79813385 864.16057125 692.79813385 864.82057125 692.79813385 865.50057125 C693.37692291 865.742915 693.95571198 865.98525875 694.5520401 866.23494625 C697.22048105 867.73855472 698.73487097 869.4310688 700.73563385 871.75057125 C703.45746333 874.86895867 706.19410899 877.93921304 709.06375885 880.92244625 C723.91874359 896.40010775 723.91874359 896.40010775 725.42313385 905.12557125 C723.72770611 914.28088106 718.00555666 919.89006904 711.79813385 926.50057125 C710.42744227 928.0401351 709.05776329 929.58060073 707.68875885 931.121665 C703.00586318 936.33509218 698.12496656 941.3263354 693.15921783 946.26985836 C691.72973668 947.69394617 690.30572874 949.12335169 688.88211823 950.55330563 C683.68197655 955.74620981 678.39316762 960.73769341 672.79813385 965.50057125 C671.7030774 966.4613238 670.60927743 967.4235108 669.51688385 968.38729 C637.14815854 996.67131929 637.14815854 996.67131929 613.58401871 996.63199902 C612.44452451 996.63405165 611.30503032 996.63610428 610.131006 996.63821912 C606.96303785 996.64290497 603.79510561 996.64311493 600.62713559 996.64144153 C597.18231631 996.64070992 593.73750464 996.6457346 590.29268861 996.65001655 C583.45783372 996.65759498 576.62298664 996.65978953 569.78812798 996.6603456 C561.60192389 996.66125942 553.41572701 996.66792758 545.22952602 996.67469243 C525.44129041 996.69075443 505.65305556 996.6966563 485.8648146 996.70144117 C476.50149419 996.7037773 467.13817439 996.70738001 457.77485446 996.71113655 C425.71720437 996.72397332 393.65955461 996.73469154 361.60190201 996.73813915 C359.5893453 996.73836078 357.57678859 996.73858257 355.56423189 996.7388045 C353.54682979 996.73902514 351.52942769 996.73924563 349.51202559 996.73946595 C345.46481689 996.7399085 341.41760818 996.74035562 337.37039948 996.74080563 C336.36692648 996.74091502 335.36345349 996.74102441 334.32957222 996.74113711 C301.80525671 996.74476627 269.28096351 996.76068034 236.75665654 996.78399599 C202.36307531 996.80860652 167.96950682 996.8223126 133.57591653 996.82350707 C129.79826625 996.82367852 126.02061597 996.82389395 122.2429657 996.8241415 C120.84773949 996.82422516 120.84773949 996.82422516 119.42432689 996.8243105 C104.47090556 996.82546 89.51750717 996.8364736 74.56409358 996.85102856 C59.52460101 996.86541379 44.48513774 996.86861915 29.44564018 996.86058858 C20.51778298 996.85614158 11.59002057 996.85995558 2.66217587 996.87582709 C-3.31164344 996.88561234 -9.2853967 996.88436516 -15.25921548 996.87439086 C-18.6564136 996.86902413 -22.05328357 996.86988945 -25.45048955 996.88089958 C-52.44800422 996.96282674 -80.34898049 995.36889607 -100.99092865 975.70369625 C-102.08534271 974.61314938 -102.08534271 974.61314938 -103.20186615 973.50057125 C-104.04878021 972.68846188 -104.04878021 972.68846188 -104.91280365 971.85994625 C-112.9238653 963.46740547 -117.04084221 951.65477946 -119.20186615 940.50057125 C-119.37387543 939.73043697 -119.5458847 938.9603027 -119.72310638 938.16683102 C-121.97281962 925.63795891 -120.97068566 910.89103854 -118.20186615 898.50057125 C-117.89249115 897.02330563 -117.89249115 897.02330563 -117.57686615 895.51619625 C-112.75058077 874.34635356 -101.65418579 855.07883565 -89.20186615 837.50057125 C-88.439581 836.40330827 -87.67785657 835.30565552 -86.9167099 834.2076025 C-81.2079627 826.04107293 -75.14677858 818.14725714 -69.08614349 810.24031734 C-65.37154757 805.3841157 -61.71552473 800.5039787 -58.20186615 795.50057125 C-54.09629506 789.65917594 -49.79286805 783.98125844 -45.45186615 778.31307125 C-37.91054826 768.46495567 -30.52961268 758.50817937 -23.20186615 748.50057125 C-15.29482444 737.70181142 -7.30577107 726.9773486 0.82791901 716.34798336 C5.88917106 709.7227787 10.85911356 703.03543523 15.79032135 696.31307125 C19.91191177 690.69528705 24.07832164 685.11344265 28.26883698 679.54695797 C32.0656118 674.49584679 35.81063467 669.4081374 39.54813385 664.31307125 C44.55969065 657.48621721 49.6516201 650.72619934 54.79813385 644.00057125 C61.66614557 635.02268655 68.4046306 625.95721513 75.08475494 616.83895016 C85.75638902 602.27455699 96.54366081 587.8003558 107.39920807 573.37264156 C108.88701631 571.39495107 110.37413784 569.41674823 111.86063385 567.43807125 C112.34193756 566.79740719 112.82324127 566.15674313 113.31912994 565.496665 C117.09552352 560.45979796 120.82388608 555.38855786 124.54813385 550.31307125 C129.57616785 543.46174572 134.69164707 536.68358664 139.86063385 529.93807125 C144.77228982 523.52654325 149.60007414 517.07025138 154.29813385 510.50057125 C159.64904353 503.01795775 165.18819334 495.69395815 170.78202057 488.39168453 C177.57356939 479.51493962 184.19532974 470.51811514 190.79813385 461.50057125 C198.70674588 450.69966682 206.6986588 439.97410489 214.83231354 429.34139156 C221.6018896 420.47779488 228.20936757 411.49894348 234.79813385 402.50057125 C242.70674588 391.69966682 250.6986588 380.97410489 258.83231354 370.34139156 C265.6018896 361.47779488 272.20936757 352.49894348 278.79813385 343.50057125 C286.70674588 332.69966682 294.6986588 321.97410489 302.83231354 311.34139156 C309.6018896 302.47779488 316.20936757 293.49894348 322.79813385 284.50057125 C330.70674588 273.69966682 338.6986588 262.97410489 346.83231354 252.34139156 C353.6018896 243.47779488 360.20936757 234.49894348 366.79813385 225.50057125 C374.97223242 214.33708806 383.22744737 203.24616063 391.64530182 192.26473141 C392.6104068 191.00475338 392.6104068 191.00475338 393.59500885 189.71932125 C394.16574127 188.97617672 394.73647369 188.23303219 395.32450104 187.46736813 C396.53592155 185.85053518 397.67746256 184.18157819 398.79813385 182.50057125 C397.93438349 182.50171041 397.07063314 182.50284957 396.18070853 182.50402325 C344.99183464 182.57115237 293.80296542 182.62262836 242.61405633 182.65376724 C236.46822142 182.65751938 230.3223866 182.66140234 224.17655182 182.66536617 C222.95302287 182.6661531 221.72949391 182.66694004 220.46888833 182.66775081 C200.65572653 182.68080597 180.84259084 182.70446044 161.02944453 182.73202964 C140.70047479 182.76008075 120.37151872 182.77674689 100.04253042 182.78283674 C87.4977107 182.78695378 74.95296477 182.79995888 62.40816776 182.82432065 C53.80661471 182.84017418 45.20509983 182.84497246 36.60353322 182.84107538 C31.64034069 182.83915326 26.67727713 182.84210721 21.71410751 182.85818768 C17.16764347 182.87281035 12.62139488 182.87350821 8.07492082 182.86326794 C6.4327575 182.86200271 4.79058061 182.86578814 3.14844389 182.8752208 C-8.61993196 182.93887299 -18.60169657 182.22596816 -28.20186615 174.81307125 C-28.79870209 174.36882809 -29.39553802 173.92458492 -30.0104599 173.46687984 C-31.75384955 172.16074356 -33.48000745 170.83490827 -35.20186615 169.50057125 C-36.06811615 168.83670406 -36.93436615 168.17283688 -37.82686615 167.4888525 C-40.32069368 165.53234636 -42.76681013 163.5297846 -45.20186615 161.50057125 C-45.70621185 161.08114254 -46.21055756 160.66171383 -46.73018646 160.22957516 C-59.82594509 149.295594 -72.1766395 137.59520997 -84.26436615 125.56307125 C-84.95441742 124.87769283 -85.64446869 124.19231441 -86.3554306 123.48616695 C-108.14617445 101.62649023 -108.14617445 101.62649023 -109.70186615 91.12557125 C-108.55456372 82.8076286 -102.22333947 76.98371431 -96.67549896 71.07137203 C-94.9770805 69.26096375 -93.28891605 67.44122202 -91.60030365 65.621665 C-74.40257291 47.13600807 -74.40257291 47.13600807 -65.47530365 39.496665 C-63.17595238 37.47781878 -60.94740924 35.39255728 -58.72066498 33.29427242 C-51.54943769 26.55973059 -44.0522552 20.42283237 -36.20186615 14.50057125 C-35.60696381 14.04343746 -35.01206146 13.58630367 -34.39913177 13.11531734 C-32.61555903 11.74871498 -30.81779114 10.40332971 -29.01436615 9.06307125 C-27.96893646 8.28061031 -26.92350677 7.49814938 -25.8463974 6.6919775 C-17.81969237 1.45876739 -9.42228381 -0.09251871 0 0 Z " fill="#BA68D4" transform="translate(697.2018661499023,251.49942874908447)"/>
</svg>
